<?xml version="1.0" encoding="utf-8"?>
<!-- Generator: Adobe Illustrator 19.1.0, SVG Export Plug-In . SVG Version: 6.00 Build 0)  -->
<svg version="1.1" id="Layer_1" xmlns="http://www.w3.org/2000/svg" xmlns:xlink="http://www.w3.org/1999/xlink" x="0px" y="0px"
	 viewBox="0 0 458.9 372.3" style="enable-background:new 0 0 458.9 372.3;" xml:space="preserve">
<style type="text/css">
	.st0{fill:#342A2A;}
</style>
<g>
	<path class="st0" d="M57,116.1l-14.8,5.3l0.3,37.8c0,0,0.9,18.2-14,22.2c-14.9,4-12.4-15.9-12.4-15.9l-0.3-35.1L0,136.1v40
		c0,0,0.3,15.3,8,19.6c7.7,4.3,24.1,6.7,41.7-13.4c0,0,7.3-8.7,7.3-22.9C57,146.5,57,116.1,57,116.1z"/>
	<path class="st0" d="M81,152.1c0,0,1.4-9.9,10.5-10.6c0,0,3.5-0.1,3.5,5.6s0,23.9,0,23.9l14-5.2v-29.8c0,0,1.4-12.6-12.5-9.3
		c0,0-8.5,1.3-16.5,14.3v-7l-13,4v42l14-4.9V152.1z"/>
	<polygon class="st0" points="131,114.1 116,121.1 116,164.1 131,158.4 	"/>
	<path class="st0" d="M132.2,101c0-8.8-8-6-8-6s-8.9,2.8-8.2,11.9C116.7,115.8,132.2,111.6,132.2,101z"/>
	<path class="st0" d="M148.9,153.2l15.1-5.9c0,0-6.1-1.3-6.7-5.5c-0.5-3.6-0.3-22.7-0.3-22.7l10-3.7v-11.3l-10.2,3.8l-0.1-14.6
		l-13.8,6.8v12.6l-7,2.4v11l7-2.2v22.2C143,146.1,143.3,152.3,148.9,153.2z"/>
	<path class="st0" d="M196.1,92.4c0,0-19.8,3-27,24.9c-7.2,21.9,10.5,24.4,12.3,24.4s13.9-0.8,26.6-11.9l1.5-13.6
		c0,0-7.1,9.4-19.6,12.8c0,0-8,1.4-8.8-6.3l29-10.9C210.1,111.8,218.4,90.1,196.1,92.4z M199.8,109.3l-18.6,6.9
		c0,0,2.7-11.8,11.3-13C201.3,102,199.8,109.3,199.8,109.3z"/>
	<path class="st0" d="M246,117.9v3.2l13-6.3V46.1l-15.2,6.8l0.3,24.7c0,0-18.8-1.6-27.6,20.9C207.8,121.1,223,138.2,246,117.9z
		 M244,88.1v20c0,0-5.7,9-12.4,3.8S230.3,86.7,244,88.1z"/>
	<polygon class="st0" points="96.7,218.7 54.5,193.1 52,194.1 52,264.1 68,258.3 68,221.1 109.8,246.6 111,246 111,176.1 
		96.5,180.9 	"/>
	<polygon class="st0" points="121,240.1 136,234.4 136,190.1 121,197.1 	"/>
	<path class="st0" d="M129.2,171.1c0,0-8.9,2.8-8.2,11.9c0.7,8.8,16.2,4.6,16.2-6C137.2,168.3,129.2,171.1,129.2,171.1z"/>
	<path class="st0" d="M174.5,178.7c0,0-8.5,1.3-16.5,14.3v-7l-13,4v42l14-4.9v-21c0-2.5,0.6-5,1.8-7.2c1.5-2.6,4.1-5.2,8.7-5.5
		c0,0,3.5-0.1,3.5,5.6s0,23.9,0,23.9l14-5.2v-29.8C187,188.1,188.4,175.5,174.5,178.7z"/>
	<path class="st0" d="M194,217.1c0,0-0.8,14.2-5.2,19.7l17.8-8.8c0,0,2.4-4.8,2.4-14.3v-47.6l-15,7V217.1z"/>
	<path class="st0" d="M202.2,147.1c0,0-8.9,2.8-8.2,11.9c0.7,8.8,16.2,4.6,16.2-6C210.2,144.3,202.2,147.1,202.2,147.1z"/>
	<path class="st0" d="M258,182.7v-31.6l-11.8,4.8c0,0-24.6-4.6-31.3,24.8c-5.9,26.1,19.9,29.5,29.2,15.2l1.4,4.1l13.9-9
		C259.4,191,258,189,258,182.7z M244,186.1c0,0-3.7,5.3-7.7,5.6c-3.5,0.3-7.3-2.3-7.4-7.5c0-1.4,0.4-4.1,0.4-4.1
		c1.1-4.5,5-15.9,14.7-13V186.1z"/>
	<g>
		<polygon class="st0" points="224.3,215.4 265.6,202.7 322.9,219.2 306,314 246.8,372.3 286.7,236.1 		"/>
		<polygon class="st0" points="367.8,198.9 326.4,211.6 269.1,195.2 286,100.3 345.2,42 305.3,178.3 		"/>
		<polygon class="st0" points="315.4,173.4 356.7,160.7 414,177.1 397.1,272 337.9,330.3 377.9,194 		"/>
		<polygon class="st0" points="458.9,156.9 417.6,169.6 360.3,153.1 377.2,58.3 436.4,0 396.4,136.2 		"/>
	</g>
</g>
</svg>
