<?xml version="1.0" encoding="utf-8"?>
<!-- Generator: Adobe Illustrator 19.1.0, SVG Export Plug-In . SVG Version: 6.00 Build 0)  -->
<svg version="1.1" id="Layer_1" xmlns="http://www.w3.org/2000/svg" xmlns:xlink="http://www.w3.org/1999/xlink" x="0px" y="0px"
	 viewBox="0 0 489.3 396.5" style="enable-background:new 0 0 489.3 396.5;" xml:space="preserve">
<style type="text/css">
	.st0{fill:#FFFFFF;}
</style>
<g>
	<path class="st0" d="M61,123.6l-15.7,5.6l0.2,40.2c0,0,0.9,19.4-14.9,23.7c-15.8,4.3-13.2-16.9-13.2-16.9L17,138.8l-17,6.1v42.6
		c0,0,0.5,16.3,8.6,20.9c8.2,4.6,25.7,7.1,44.5-14.3c0,0,7.9-9.2,7.9-24.4C61,156,61,123.6,61,123.6z"/>
	<path class="st0" d="M87,162c0,0,1-10.6,10.7-11.3c0,0,3.3-0.1,3.3,6c0,6.1,0,25.5,0,25.5l16-5.5v-31.8c0,0,1.5-13.4-13.4-9.9
		c0,0-9.6,1.3-17.6,15.3v-7.5l-15,4.3v44.7l16-5.2V162z"/>
	<polygon class="st0" points="139,121.5 124,129 124,174.8 139,168.7 	"/>
	<path class="st0" d="M141,107.6c0-9.3-8.5-6.3-8.5-6.3s-9.5,3-8.7,12.7C124.5,123.4,141,118.8,141,107.6z"/>
	<path class="st0" d="M159,163.2l16-6.3c0,0-6.5-1.4-7.2-5.9c-0.6-3.8,0.1-24.1,0.1-24.1l11.1-3.9v-12.1l-11.3,4l-0.1-15.5
		l-14.6,7.3V120l-8,2.6v11.7l8-2.3v23.6C153,155.6,153.1,162.2,159,163.2z"/>
	<path class="st0" d="M209.1,98.4c0,0-21.1,3.2-28.8,26.5c-7.6,23.3,11.2,26,13,26s14.8-0.8,28.3-12.7l1.6-14.5
		c0,0-7.5,10-20.9,13.6c0,0-8.5,1.5-9.3-6.7l30.9-11.6C224,119.1,232.9,95.9,209.1,98.4z M213.1,116.5l-19.8,7.4
		c0,0,2.8-12.6,12.1-13.9C214.6,108.7,213.1,116.5,213.1,116.5z"/>
	<path class="st0" d="M262,125.6v3.4l15-6.7V49.1l-16.6,7.3l0.1,26.3c0,0-20.2-1.8-29.6,22.3C221.5,129,237,147.2,262,125.6z
		 M260,93.8v21.3c0,0-6,9.6-13.2,4.1C239.6,113.7,246,92.3,260,93.8z"/>
	<polygon class="st0" points="103.2,232.9 58.5,205.7 56,206.7 56,281.3 72,275.2 72,235.5 117.1,262.6 119,262 119,187.5 
		103.3,192.7 	"/>
	<polygon class="st0" points="129,255.7 145,249.7 145,202.5 129,209.9 	"/>
	<path class="st0" d="M137.8,182.2c0,0-9.5,3-8.7,12.7c0.7,9.4,17.2,4.9,17.2-6.3C146.3,179.2,137.8,182.2,137.8,182.2z"/>
	<path class="st0" d="M185.6,190.4c0,0-8.6,1.3-17.6,15.3v-7.5l-13,4.3v44.7l14-5.2v-22.4c0-2.7,0.9-5.3,2.2-7.6
		c1.6-2.7,4.8-5.5,9.6-5.9c0,0,4.1-0.1,4.1,6c0,6.1,0,25.5,0,25.5l14-5.5v-31.8C199,200.3,200.5,186.9,185.6,190.4z"/>
	<path class="st0" d="M206,231.2c0,0-0.4,15.1-5.1,21l19.2-9.4c0,0,2.9-5.1,2.9-15.2v-50.7l-17,7.5V231.2z"/>
	<path class="st0" d="M215.5,156.7c0,0-9.5,3-8.7,12.7c0.7,9.4,17.2,4.9,17.2-6.3C224.1,153.7,215.5,156.7,215.5,156.7z"/>
	<path class="st0" d="M276,194.6v-33.7l-13.1,5.1c0,0-26.5-4.9-33.6,26.4c-6.3,27.8,21.1,31.4,30.9,16.2l1.4,4.4l15.3-9.6
		C277.1,203.4,276,201.3,276,194.6z M260,198.2c0,0-3.9,5.6-8.2,6c-3.8,0.3-7.7-2.5-7.9-8c0-1.5,0.4-4.4,0.4-4.4
		c1.2-4.8,5.7-17,15.7-13.8V198.2z"/>
	<g>
		<polygon class="st0" points="239.1,229.4 283.1,215.9 344.1,233.4 326.1,334.5 263.1,396.5 305.6,251.4 		"/>
		<polygon class="st0" points="391.9,211.9 347.9,225.4 286.9,207.9 304.9,106.8 367.9,44.8 325.4,189.9 		"/>
		<polygon class="st0" points="336.1,184.6 380.2,171.1 441.2,188.6 423.2,289.7 360.2,351.8 402.7,206.7 		"/>
		<polygon class="st0" points="489,167.1 445,180.6 383.9,163.1 401.9,62 465,0 422.5,145.1 		"/>
	</g>
</g>
</svg>
